<?xml version="1.0" standalone="no"?>
<!DOCTYPE svg PUBLIC "-//W3C//DTD SVG 20010904//EN"
 "http://www.w3.org/TR/2001/REC-SVG-20010904/DTD/svg10.dtd">
<svg version="1.0" xmlns="http://www.w3.org/2000/svg"
 width="48.000000pt" height="48.000000pt" viewBox="0 0 48.000000 48.000000"
 preserveAspectRatio="xMidYMid meet">

<g transform="translate(0.000000,48.000000) scale(0.100000,-0.100000)"
fill="#000000" stroke="none">
<path d="M140 310 c0 -13 7 -20 20 -20 13 0 20 7 20 20 0 13 -7 20 -20 20 -13
0 -20 -7 -20 -20z"/>
<path d="M220 310 c0 -13 7 -20 20 -20 13 0 20 7 20 20 0 13 -7 20 -20 20 -13
0 -20 -7 -20 -20z"/>
<path d="M300 310 c0 -13 7 -20 20 -20 13 0 20 7 20 20 0 13 -7 20 -20 20 -13
0 -20 -7 -20 -20z"/>
<path d="M308 249 c-12 -6 -18 -21 -17 -42 1 -32 1 -32 10 -6 8 22 15 26 46
24 22 -2 42 -10 50 -21 16 -22 17 -4 1 31 -8 19 -19 25 -42 25 -17 0 -39 -5
-48 -11z"/>
<path d="M140 230 c0 -13 7 -20 20 -20 13 0 20 7 20 20 0 13 -7 20 -20 20 -13
0 -20 -7 -20 -20z"/>
<path d="M220 230 c0 -13 7 -20 20 -20 13 0 20 7 20 20 0 13 -7 20 -20 20 -13
0 -20 -7 -20 -20z"/>
<path d="M100 110 l0 -60 71 0 c65 0 73 2 97 28 15 16 33 31 41 33 12 4 11 10
-5 32 -18 25 -23 26 -111 27 l-93 0 0 -60z"/>
<path d="M394 70 c-12 -5 -25 -14 -29 -20 -4 -6 -15 -8 -24 -5 -10 3 -29 1
-42 -4 -18 -7 -5 -10 57 -10 44 -1 84 2 87 5 7 8 -10 44 -21 43 -4 0 -17 -4
-28 -9z"/>
<path d="M340 60 c0 -5 5 -10 10 -10 6 0 10 5 10 10 0 6 -4 10 -10 10 -5 0
-10 -4 -10 -10z"/>
</g>
</svg>
